<svg xmlns="http://www.w3.org/2000/svg" viewBox="0 0 534 388.99"><title>Avocadough Logo</title><g id="Layer_2" data-name="Layer 2"><g id="Layer_1-2" data-name="Layer 1"><path d="M.64,381.13l17.27-39a6.75,6.75,0,0,1,6.37-4.32h.64a6.65,6.65,0,0,1,6.3,4.32l17.28,39a5.38,5.38,0,0,1,.56,2.19,5.16,5.16,0,0,1-5.16,5.24c-2.55,0-4.25-1.48-5.24-3.75L35.33,377H13.52l-3.47,8.15a5.35,5.35,0,0,1-5,3.39,5,5,0,0,1-5-5.09A5.71,5.71,0,0,1,.64,381.13ZM31.29,367.4,24.42,351,17.56,367.4Z" style="fill:#045113"/><path d="M66.46,384.6,50.39,346.15a6.76,6.76,0,0,1-.63-2.61,5.34,5.34,0,0,1,5.45-5.38A5.66,5.66,0,0,1,60.73,342l12.39,32.07,12.53-32.43a5.65,5.65,0,0,1,5.24-3.46,5.26,5.26,0,0,1,5.38,5.23,6.24,6.24,0,0,1-.57,2.41L79.49,384.6a6.4,6.4,0,0,1-6.16,4.32h-.71A6.41,6.41,0,0,1,66.46,384.6Z" style="fill:#045113"/><path d="M100,363.5v-.14c0-14.09,11.11-25.63,26.41-25.63s26.26,11.4,26.26,25.49v.14c0,14.09-11.11,25.63-26.4,25.63S100,377.59,100,363.5Zm41.27,0v-.14c0-8.5-6.23-15.58-15-15.58s-14.87,6.94-14.87,15.44v.14c0,8.5,6.23,15.58,15,15.58S141.29,372,141.29,363.5Z" style="fill:#045113"/><path d="M159.91,363.5v-.14c0-14.09,10.62-25.63,25.84-25.63,7.44,0,12.46,2,16.57,5a5.45,5.45,0,0,1,2.12,4.32,5.32,5.32,0,0,1-5.38,5.31,5.66,5.66,0,0,1-3.25-1.07,16.35,16.35,0,0,0-10.13-3.54c-8.35,0-14.37,6.94-14.37,15.44v.14c0,8.5,5.88,15.58,14.37,15.58a15.89,15.89,0,0,0,10.76-3.9,5.05,5.05,0,1,1,6.52,7.72c-4.46,3.89-9.7,6.23-17.63,6.23C170.74,389,159.91,377.73,159.91,363.5Z" style="fill:#045113"/><path d="M211.46,381.13l17.27-39a6.75,6.75,0,0,1,6.37-4.32h.64a6.65,6.65,0,0,1,6.3,4.32l17.28,39a5.38,5.38,0,0,1,.56,2.19,5.16,5.16,0,0,1-5.16,5.24c-2.55,0-4.25-1.48-5.24-3.75L246.15,377H224.34l-3.47,8.15a5.35,5.35,0,0,1-5,3.39,5,5,0,0,1-5-5.09A5.71,5.71,0,0,1,211.46,381.13Zm30.65-13.73L235.24,351l-6.86,16.36Z" style="fill:#045113"/><path d="M267.39,344a5.41,5.41,0,0,1,5.45-5.45h13.88c15.58,0,26.34,10.69,26.34,24.64v.14c0,13.95-10.76,24.78-26.34,24.78H272.84a5.41,5.41,0,0,1-5.45-5.45Zm19.33,34.27c8.92,0,14.94-6,14.94-14.8v-.14c0-8.78-6-14.94-14.94-14.94h-8.43V378.3Z" style="fill:#81dd30"/><path d="M320.06,363.5v-.14c0-14.09,11.11-25.63,26.4-25.63s26.27,11.4,26.27,25.49v.14c0,14.09-11.12,25.63-26.41,25.63S320.06,377.59,320.06,363.5Zm41.27,0v-.14c0-8.5-6.23-15.58-15-15.58s-14.87,6.94-14.87,15.44v.14c0,8.5,6.23,15.58,15,15.58S361.33,372,361.33,363.5Z" style="fill:#81dd30"/><path d="M381.77,366.9V343.61a5.45,5.45,0,1,1,10.9,0v23c0,8.07,4,12.24,10.69,12.24s10.69-4,10.69-11.89V343.61a5.45,5.45,0,0,1,10.9,0v22.93c0,15-8.42,22.38-21.73,22.38S381.77,381.48,381.77,366.9Z" style="fill:#81dd30"/><path d="M434,363.5v-.14c0-14.09,11-25.63,26-25.63,7.5,0,12.46,1.7,16.92,4.81a5.47,5.47,0,0,1,2.27,4.39,5.38,5.38,0,0,1-5.38,5.38,5.29,5.29,0,0,1-3.33-1.13,17.39,17.39,0,0,0-10.83-3.4c-7.94,0-14.24,7-14.24,15.44v.14c0,9.06,6.23,15.72,15,15.72a17.35,17.35,0,0,0,10.27-3V369h-7.36a4.69,4.69,0,0,1-4.75-4.67,4.75,4.75,0,0,1,4.75-4.74h12.46a5.41,5.41,0,0,1,5.45,5.45v12a7.36,7.36,0,0,1-3.82,6.94A33,33,0,0,1,460,389C444.57,389,434,378.16,434,363.5Z" style="fill:#81dd30"/><path d="M492.09,343.61a5.45,5.45,0,1,1,10.9,0v14.58H523.1V343.61a5.45,5.45,0,0,1,10.9,0v39.5a5.45,5.45,0,0,1-10.9,0V368.25H503v14.86a5.45,5.45,0,1,1-10.9,0Z" style="fill:#81dd30"/><path d="M338.66,149.54c-2.34-6.28-6.22-12.12-10-17.76-1.39-2.09-2.82-4.24-4.16-6.4a124.07,124.07,0,0,1-14.88-34.66c-.28-1.07-.54-2.17-.8-3.22-1.05-4.31-2.13-8.76-4.15-12.72-2.76-5.41-7.07-9.1-11.83-10.12a15.87,15.87,0,0,0-1.87-.28c-3.79-.31-7.65.73-11.73,1.82-1.39.38-2.8.73-4.21,1.06.59.07,1.18.14,1.75.25-1.8,1.07-5.53,2-9.9,2.47s-8.31.19-10.32-.53a34,34,0,0,1,6-1.68c0-.11,0-.22-.07-.34a24.6,24.6,0,0,0-3.34-.52c-7.78-.65-10.91,3.32-16.08,9.91-1.36,1.72-2.9,3.68-4.64,5.67-9.54,10.89-20.5,24-29.47,38.62-13.06,21.3-19.53,42.12-19.22,61.88.37,23.16,10.77,44.49,27.83,57,10.7,7.88,24.52,12.73,40,14q4.2.34,8.48.35A109.67,109.67,0,0,0,283.21,253c15.6-2.47,27.5-7.74,35.36-15.64,8.16-8.22,19.43-20.68,23.15-34C346.35,186.85,345.24,167.21,338.66,149.54Zm-37.37,28c-1.84,18.12-18.62,31.38-37.47,29.61s-32.66-17.9-30.81-36,18.62-31.38,37.47-29.61S303.14,159.42,301.29,177.54Z" style="fill:#045113"/><path d="M301.11,32.3s-28.26,7.36-30.94,36l-.59,0-6.69.66s-.12-.42-.3-1.19c0-.11,0-.22-.07-.34-.82-4-2.41-15,2.58-26l-5.49-4.12L254,33.09l3.43-4L263,33.3l4.67,3.51c3.95-6.11,10.31-11.91,20.42-16.12,0,0,8.3,1.85,11.89,8.58A13.35,13.35,0,0,1,301.11,32.3Z" style="fill:#045113"/><g id="_Group_" data-name="&lt;Group&gt;"><g id="_Group_2" data-name="&lt;Group&gt;"><path d="M253.84,12.41C240.72,2.56,213.72,0,213.72,0h0s8.47,24.07,21.59,33.92,20.8,7.69,25.91,1.75h0C266.34,29.73,267,22.26,253.84,12.41Z" style="fill:#045113"/></g></g><path d="M428.11,68.86h-117a37.59,37.59,0,0,1,9.8,20h57.28a24.83,24.83,0,0,0-3.17,12.15c0,14.2,12,25.71,26.75,25.71A27.74,27.74,0,0,0,412,124.83v89.92a27.54,27.54,0,0,0-10.19-1.94c-14.78,0-26.75,11.51-26.75,25.71A24.77,24.77,0,0,0,377.87,250H314.23a98.29,98.29,0,0,1-97.18,0H154.66a24.78,24.78,0,0,0,2.83-11.45c0-14.2-12-25.71-26.75-25.71a27.55,27.55,0,0,0-8.43,1.32V125.45a27.85,27.85,0,0,0,8.43,1.32c14.77,0,26.75-11.51,26.75-25.71a24.83,24.83,0,0,0-3.18-12.15h61.26c5.47-7.25,11.06-14,16.34-20H106.19a9.85,9.85,0,0,0-10,9.65V260.36a9.86,9.86,0,0,0,10,9.66H428.11a9.86,9.86,0,0,0,10-9.66V78.51A9.85,9.85,0,0,0,428.11,68.86Z" style="fill:#81dd30"/></g></g></svg>