<?xml version="1.0" encoding="UTF-8"?>
<svg width="342px" height="271px" viewBox="0 0 342 271" version="1.1" xmlns="http://www.w3.org/2000/svg" xmlns:xlink="http://www.w3.org/1999/xlink">
    <!-- Generator: Sketch 55 (78076) - https://sketchapp.com -->
    <title>Icon</title>
    <desc>Created with Sketch.</desc>
    <g id="Page-1" stroke="none" stroke-width="1" fill="none" fill-rule="evenodd">
        <g id="Icon" fill="#045113" fill-rule="nonzero">
            <path d="M242.47,149.54 C240.13,143.26 236.25,137.42 232.47,131.78 C231.08,129.69 229.65,127.54 228.31,125.38 C221.612533,114.65255 216.594558,102.964175 213.43,90.72 C213.15,89.65 212.89,88.55 212.63,87.5 C211.58,83.19 210.5,78.74 208.48,74.78 C205.72,69.37 201.41,65.68 196.65,64.66 C196.032786,64.5295828 195.408344,64.4360835 194.78,64.38 C190.99,64.07 187.13,65.11 183.05,66.2 C181.66,66.58 180.25,66.93 178.84,67.26 C179.43,67.33 180.02,67.4 180.59,67.51 C178.79,68.58 175.06,69.51 170.69,69.98 C166.32,70.45 162.38,70.17 160.37,69.45 C162.314364,68.7075364 164.322795,68.1451756 166.37,67.77 C166.37,67.66 166.37,67.55 166.3,67.43 C165.199906,67.1802908 164.083939,67.0065474 162.96,66.91 C155.18,66.26 152.05,70.23 146.88,76.82 C145.52,78.54 143.98,80.5 142.24,82.49 C132.7,93.38 121.74,106.49 112.77,121.11 C99.71,142.41 93.24,163.23 93.55,182.99 C93.92,206.15 104.32,227.48 121.38,239.99 C132.08,247.87 145.9,252.72 161.38,253.99 C164.18,254.216667 167.006667,254.333333 169.86,254.34 C175.606272,254.343581 181.343938,253.895535 187.02,253 C202.62,250.53 214.52,245.26 222.38,237.36 C230.54,229.14 241.81,216.68 245.53,203.36 C250.16,186.85 249.05,167.21 242.47,149.54 Z M205.1,177.54 C203.26,195.66 186.48,208.92 167.63,207.15 C148.78,205.38 134.97,189.25 136.82,171.15 C138.67,153.05 155.44,139.77 174.29,141.54 C193.14,143.31 206.95,159.42 205.1,177.54 Z" id="Shape"></path>
            <path d="M204.92,32.3 C204.92,32.3 176.66,39.66 173.98,68.3 L173.39,68.3 L166.7,68.96 C166.7,68.96 166.58,68.54 166.4,67.77 C166.4,67.66 166.4,67.55 166.33,67.43 C165.51,63.43 163.92,52.43 168.91,41.43 L163.42,37.31 L157.81,33.09 L161.24,29.09 L166.81,33.3 L171.48,36.81 C175.43,30.7 181.79,24.9 191.9,20.69 C191.9,20.69 200.2,22.54 203.79,29.27 C204.288056,30.2304788 204.667506,31.2479418 204.92,32.3 Z" id="Path"></path>
            <g id="_Group_" transform="translate(116.810000, 0.000000)">
                <g id="_Group_2">
                    <path d="M40.84,12.41 C27.72,2.56 0.72,0 0.72,0 L0.72,0 C0.72,0 9.19,24.07 22.31,33.92 C35.43,43.77 43.11,41.61 48.22,35.67 L48.22,35.67 C53.34,29.73 54,22.26 40.84,12.41 Z" id="Path"></path>
                </g>
            </g>
            <path d="M331.92,68.86 L214.92,68.86 C220.131999,74.3836368 223.54867,81.356435 224.72,88.86 L282,88.86 C279.919813,92.5715146 278.828243,96.7552951 278.83,101.01 C278.83,115.21 290.83,126.72 305.58,126.72 C309.078676,126.740772 312.549702,126.099498 315.81,124.83 L315.81,214.75 C312.566881,213.463714 309.108887,212.805372 305.62,212.81 C290.84,212.81 278.87,224.32 278.87,238.52 C278.866632,242.517346 279.830742,246.456128 281.68,250 L218.04,250 C187.912307,267.133783 150.987693,267.133783 120.86,250 L58.47,250 C60.3211333,246.466733 61.2919648,242.53881 61.3,238.55 C61.3,224.35 49.3,212.84 34.55,212.84 C31.6885006,212.839536 28.8443967,213.284876 26.12,214.16 L26.12,125.45 C28.8455138,126.320409 31.6888781,126.765633 34.55,126.77 C49.32,126.77 61.3,115.26 61.3,101.06 C61.298703,96.8044095 60.2036742,92.6205732 58.12,88.91 L119.38,88.91 C124.85,81.66 130.44,74.91 135.72,68.91 L10,68.91 C4.57891917,68.826331 0.109440181,73.1393782 0,78.56 L0,260.36 C0.10944337,265.782185 4.57727288,270.098109 10,270.02 L331.92,270.02 C337.342727,270.098109 341.810557,265.782185 341.92,260.36 L341.92,78.51 C341.81056,73.0893782 337.341081,68.776331 331.92,68.86 Z" id="Path"></path>
        </g>
    </g>
</svg>