<svg xmlns="http://www.w3.org/2000/svg" viewBox="0 0 441 356.09"><title>Avocadough Icon FLAT</title><g id="Layer_2" data-name="Layer 2"><g id="Layer_1-2" data-name="Layer 1"><path d="M312.7,197.21c-3-8.28-8-16-12.85-23.43-1.79-2.74-3.63-5.59-5.36-8.43a165.91,165.91,0,0,1-19.19-45.72c-.36-1.41-.7-2.85-1-4.24-1.35-5.68-2.75-11.55-5.35-16.77-3.56-7.13-9.12-12-15.26-13.35a18.64,18.64,0,0,0-2.41-.37c-4.88-.41-9.86,1-15.13,2.41-1.78.49-3.6,1-5.42,1.38.76.1,1.53.2,2.26.33-2.33,1.42-7.13,2.7-12.77,3.27s-10.71.24-13.3-.7a44.27,44.27,0,0,1,8.75-2.42,36.68,36.68,0,0,0-5.41-.94c-10-.85-14.07,4.39-20.75,13.07-1.75,2.28-3.73,4.86-6,7.48-12.29,14.36-26.42,31.64-38,50.94-16.84,28.08-25.18,55.54-24.78,81.6.48,30.54,13.89,58.67,35.89,75.24C170.4,327,188.23,333.34,208.17,335h0a134.75,134.75,0,0,0,33-1.34c20.12-3.26,35.46-10.2,45.59-20.63,10.52-10.83,25.06-27.26,29.85-44.8C322.63,246.41,321.19,220.5,312.7,197.21Z" style="fill:#045113"/><path d="M262.78,38.6c-4.63-8.87-15.33-11.32-15.33-11.32-13,5.55-21.24,13.2-26.33,21.27L207.9,38.39l-4.42,5.24,14.38,11c-8,18.11-2.85,36.25-2.85,36.25l8.63-.86.75-.07c3.46-37.7,39.9-47.41,39.9-47.41A17.84,17.84,0,0,0,262.78,38.6Z" style="fill:#045113"/><g id="_Group_" data-name="&lt;Group&gt;"><g id="_Group_2" data-name="&lt;Group&gt;"><path d="M203.33,16.37C186.42,3.37,151.61,0,151.61,0h0s10.92,31.75,27.83,44.74,26.82,10.14,33.42,2.31h0C219.46,39.21,220.25,29.36,203.33,16.37Z" style="fill:#045113"/></g></g><ellipse cx="220.5" cy="229.9" rx="44.24" ry="43.48" style="fill:#fff"/><path d="M428.05,90.81H277.22a50,50,0,0,1,12.64,26.44h73.87a33.3,33.3,0,0,0-4.1,16c0,18.72,15.45,33.9,34.5,33.9a34.9,34.9,0,0,0,13.13-2.56V283.2a34.9,34.9,0,0,0-13.13-2.56c-19.05,0-34.5,15.18-34.5,33.91a33.26,33.26,0,0,0,3.65,15.1H281.21a124.28,124.28,0,0,1-125.31,0H75.45a33.26,33.26,0,0,0,3.65-15.1c0-18.73-15.45-33.91-34.5-33.91a34.8,34.8,0,0,0-10.86,1.75V165.44a35.09,35.09,0,0,0,10.86,1.74c19,0,34.5-15.18,34.5-33.9a33.3,33.3,0,0,0-4.1-16h79c7.06-9.56,14.26-18.44,21.07-26.44H13A12.84,12.84,0,0,0,0,103.54V343.36a12.84,12.84,0,0,0,13,12.73h415.1A12.84,12.84,0,0,0,441,343.36V103.54A12.84,12.84,0,0,0,428.05,90.81Z" style="fill:#81dd30"/></g></g></svg>