<?xml version="1.0" encoding="UTF-8"?>
<svg width="534px" height="52px" viewBox="0 0 534 52" version="1.1" xmlns="http://www.w3.org/2000/svg" xmlns:xlink="http://www.w3.org/1999/xlink">
    <!-- Generator: Sketch 54.1 (76490) - https://sketchapp.com -->
    <title>avo-text-logo-dark</title>
    <desc>Created with Sketch.</desc>
    <g id="Page-1" stroke="none" stroke-width="1" fill="none" fill-rule="evenodd">
        <g id="avo-text-logo-dark" fill-rule="nonzero">
            <path d="M0.640000141,44.13 L17.9100001,5.13 C18.9239209,2.50190703 21.4632654,0.779776973 24.2800001,0.81 L24.9200001,0.81 C27.7201016,0.7799316 30.2390168,2.50718775 31.2200001,5.13 L48.5000001,44.13 C48.8396496,44.8121053 49.0305289,45.5585797 49.0600001,46.32 C49.0814341,47.7023253 48.5472699,49.0354375 47.5772493,50.0204972 C46.6072286,51.0055569 45.2824916,51.5601662 43.9000001,51.56 C41.3500001,51.56 39.6500001,50.08 38.6600001,47.81 L35.3300001,40 L13.5200001,40 L10.0500001,48.15 C9.24175051,50.2028608 7.25622381,51.5490479 5.05000014,51.54 C3.70817587,51.5402174 2.42257457,51.0010967 1.48226208,50.0438586 C0.541949583,49.0866205 0.0258472862,47.7916069 0.0500001409,46.45 C0.0805314798,45.6436656 0.281616533,44.8529582 0.640000141,44.13 L0.640000141,44.13 Z M31.2900001,30.4 L24.4200001,14 L17.5600001,30.4 L31.2900001,30.4 Z" id="Shape" fill="#FFFFFF"></path>
            <path d="M66.4600001,47.6 L50.3900001,9.15 C50.0075999,8.33087507 49.7933751,7.4433724 49.7600001,6.54 C49.748888,5.09755324 50.3218103,3.71196709 51.3483758,2.69858687 C52.3749413,1.68520664 53.7678175,1.13024299 55.2100001,1.16 C57.6933409,1.0898457 59.9321422,2.64727269 60.7300001,5 L73.1200001,37.07 L85.6500001,4.64 C86.5359612,2.53288948 88.6042447,1.16719082 90.8900001,1.18 C92.3005243,1.14779145 93.6648557,1.68359275 94.6765102,2.6670413 C95.6881647,3.65048985 96.2623209,4.99912901 96.2700001,6.41 C96.2429201,7.24334707 96.0491037,8.06281616 95.7000001,8.82 L79.4900001,47.6 C78.5892517,50.2223421 76.1023407,51.9664095 73.3300001,51.92 L72.6200001,51.92 C69.8486283,51.9632525 67.3633869,50.2203559 66.4600001,47.6 L66.4600001,47.6 Z" id="Path" fill="#FFFFFF"></path>
            <path d="M100,26.5 L100,26.36 C100,12.27 111.11,0.73 126.41,0.73 C141.71,0.73 152.67,12.13 152.67,26.22 L152.67,26.36 C152.67,40.45 141.56,51.99 126.27,51.99 C110.98,51.99 100,40.59 100,26.5 Z M141.27,26.5 L141.27,26.36 C141.27,17.86 135.04,10.78 126.27,10.78 C117.5,10.78 111.4,17.72 111.4,26.22 L111.4,26.36 C111.4,34.86 117.63,41.94 126.4,41.94 C135.17,41.94 141.29,35 141.29,26.5 L141.27,26.5 Z" id="Shape" fill="#FFFFFF"></path>
            <path d="M159.91,26.5 L159.91,26.36 C159.91,12.27 170.53,0.73 185.75,0.73 C193.19,0.73 198.21,2.73 202.32,5.73 C203.65856,6.76315664 204.441753,8.35909741 204.44,10.05 C204.437422,11.4696749 203.867519,12.8294298 202.857104,13.8266983 C201.846689,14.8239669 200.479587,15.3760137 199.06,15.36 C197.892222,15.347167 196.757002,14.9734177 195.81,14.29 C192.927742,12.0039721 189.358762,10.7567667 185.68,10.75 C177.33,10.75 171.31,17.69 171.31,26.19 L171.31,26.33 C171.31,34.83 177.19,41.91 185.68,41.91 C189.626583,41.9916389 193.462264,40.6013828 196.44,38.01 C197.819045,36.845314 199.714688,36.5048117 201.412858,37.1167569 C203.111029,37.7287022 204.353734,39.2001259 204.672858,40.9767571 C204.991983,42.7533882 204.339045,44.5653142 202.96,45.73 C198.5,49.62 193.26,51.96 185.33,51.96 C170.74,52 159.91,40.73 159.91,26.5 Z" id="Path" fill="#FFFFFF"></path>
            <path d="M211.46,44.13 L228.73,5.13 C229.743921,2.50190703 232.283265,0.779776973 235.1,0.81 L235.74,0.81 C238.540102,0.7799316 241.059017,2.50718775 242.04,5.13 L259.32,44.13 C259.65965,44.8121053 259.850529,45.5585797 259.88,46.32 C259.901434,47.7023253 259.36727,49.0354375 258.397249,50.0204972 C257.427229,51.0055569 256.102492,51.5601662 254.72,51.56 C252.17,51.56 250.47,50.08 249.48,47.81 L246.15,40 L224.34,40 L220.87,48.15 C220.061751,50.2028608 218.076224,51.5490479 215.87,51.54 C214.528176,51.5402174 213.242575,51.0010967 212.302262,50.0438586 C211.36195,49.0866205 210.845847,47.7916069 210.87,46.45 C210.900531,45.6436656 211.101617,44.8529582 211.46,44.13 Z M242.11,30.4 L235.24,14 L228.38,30.36 L242.11,30.4 Z" id="Shape" fill="#FFFFFF"></path>
            <path d="M267.39,7 C267.379249,5.5513009 267.94999,4.1588165 268.974403,3.13440333 C269.998817,2.10999017 271.391301,1.53924854 272.84,1.55 L286.72,1.55 C302.3,1.55 313.06,12.24 313.06,26.19 L313.06,26.33 C313.06,40.28 302.3,51.11 286.72,51.11 L272.84,51.11 C271.391301,51.1207515 269.998817,50.5500098 268.974403,49.5255967 C267.94999,48.5011835 267.379249,47.1086991 267.39,45.66 L267.39,7 Z M286.72,41.27 C295.64,41.27 301.66,35.27 301.66,26.47 L301.66,26.33 C301.66,17.55 295.66,11.39 286.72,11.39 L278.29,11.39 L278.29,41.3 L286.72,41.27 Z" id="Shape" fill="#045113"></path>
            <path d="M320.06,26.5 L320.06,26.36 C320.06,12.27 331.17,0.73 346.46,0.73 C361.75,0.73 372.73,12.13 372.73,26.22 L372.73,26.36 C372.73,40.45 361.61,51.99 346.32,51.99 C331.03,51.99 320.06,40.59 320.06,26.5 Z M361.33,26.5 L361.33,26.36 C361.33,17.86 355.1,10.78 346.33,10.78 C337.56,10.78 331.46,17.72 331.46,26.22 L331.46,26.36 C331.46,34.86 337.69,41.94 346.46,41.94 C355.23,41.94 361.33,35 361.33,26.5 Z" id="Shape" fill="#045113"></path>
            <path d="M381.77,29.9 L381.77,6.61 C381.77,3.60004811 384.210048,1.16 387.22,1.16 C390.229952,1.16 392.67,3.60004811 392.67,6.61 L392.67,29.61 C392.67,37.68 396.67,41.85 403.36,41.85 C410.05,41.85 414.05,37.85 414.05,29.96 L414.05,6.61 C414.05,3.60004837 416.490049,1.16000065 419.5,1.16000065 C422.509952,1.16000065 424.95,3.60004837 424.95,6.61 L424.95,29.54 C424.95,44.54 416.53,51.92 403.22,51.92 C389.91,51.92 381.77,44.48 381.77,29.9 Z" id="Path" fill="#045113"></path>
            <path d="M434,26.5 L434,26.36 C434,12.27 445,0.73 460,0.73 C467.5,0.73 472.46,2.43 476.92,5.54 C478.332281,6.55860969 479.175211,8.18876951 479.19,9.93 C479.19,12.901292 476.781292,15.31 473.81,15.31 C472.603619,15.3240816 471.428668,14.9253742 470.48,14.18 C467.351919,11.8672066 463.538678,10.6700672 459.65,10.78 C451.71,10.78 445.41,17.78 445.41,26.22 L445.41,26.36 C445.41,35.42 451.64,42.08 460.41,42.08 C464.063889,42.1868562 467.658178,41.1369177 470.68,39.08 L470.68,32 L463.32,32 C462.069231,32.0160136 460.86389,31.531715 459.971911,30.6547587 C459.079932,29.7778025 458.575232,28.5808603 458.57,27.33 C458.575515,24.7105535 460.700548,22.5899942 463.32,22.59 L475.78,22.59 C477.228699,22.5792485 478.621184,23.1499902 479.645597,24.1744033 C480.67001,25.1988165 481.240752,26.5913009 481.23,28.04 L481.23,40.04 C481.416404,42.8997564 479.925882,45.6076691 477.41,46.98 C472.188727,50.24498 466.158046,51.9838668 460,52 C444.57,52 434,41.16 434,26.5 Z" id="Path" fill="#045113"></path>
            <path d="M492.09,6.61 C492.09,3.60004811 494.530048,1.16 497.54,1.16 C500.549952,1.16 502.99,3.60004811 502.99,6.61 L502.99,21.19 L523.1,21.19 L523.1,6.61 C523.1,3.60004811 525.540048,1.16 528.55,1.16 C531.559952,1.16 534,3.60004811 534,6.61 L534,46.11 C534,49.1199519 531.559952,51.56 528.55,51.56 C525.540048,51.56 523.1,49.1199519 523.1,46.11 L523.1,31.25 L503,31.25 L503,46.11 C503,49.1199519 500.559952,51.56 497.55,51.56 C494.540048,51.56 492.1,49.1199519 492.1,46.11 L492.09,6.61 Z" id="Path" fill="#045113"></path>
        </g>
    </g>
</svg>