<?xml version="1.0" encoding="UTF-8"?>
<svg width="534px" height="52px" viewBox="0 0 534 52" version="1.1" xmlns="http://www.w3.org/2000/svg" xmlns:xlink="http://www.w3.org/1999/xlink">
    <!-- Generator: Sketch 54.1 (76490) - https://sketchapp.com -->
    <title>Avocadough Text</title>
    <desc>Created with Sketch.</desc>
    <g id="Page-1" stroke="none" stroke-width="1" fill="none" fill-rule="evenodd">
        <g id="Avocadough-Text" transform="translate(0.049189, 0.730000)" fill="#045113" fill-rule="nonzero">
            <path d="M0.590811141,43.4 L17.8608111,4.4 C18.8747319,1.77190703 21.4140764,0.0497769728 24.2308111,0.08 L24.8708111,0.08 C27.6709126,0.0499316002 30.1898278,1.77718775 31.1708111,4.4 L48.4508111,43.4 C48.7904606,44.0821053 48.9813399,44.8285797 49.0108111,45.59 C49.0322451,46.9723253 48.4980809,48.3054375 47.5280603,49.2904972 C46.5580396,50.2755569 45.2333026,50.8301662 43.8508111,50.83 C41.3008111,50.83 39.6008111,49.35 38.6108111,47.08 L35.2808111,39.27 L13.4708111,39.27 L10.0008111,47.42 C9.19256151,49.4728608 7.20703481,50.8190479 5.00081114,50.81 C3.65898687,50.8102174 2.37338557,50.2710967 1.43307308,49.3138586 C0.492760583,48.3566205 -0.0233417138,47.0616069 0.000811140922,45.72 C0.0313424798,44.9136656 0.232427533,44.1229582 0.590811141,43.4 L0.590811141,43.4 Z M31.2408111,29.67 L24.3708111,13.27 L17.5108111,29.67 L31.2408111,29.67 Z" id="Shape"></path>
            <path d="M66.4108111,46.87 L50.3408111,8.42 C49.9584109,7.60087507 49.7441861,6.7133724 49.7108111,5.81 C49.699699,4.36755324 50.2726213,2.98196709 51.2991868,1.96858687 C52.3257523,0.955206644 53.7186285,0.400242994 55.1608111,0.43 C57.6441519,0.359845696 59.8829532,1.91727269 60.6808111,4.27 L73.0708111,36.34 L85.6008111,3.91 C86.4867722,1.80288948 88.5550557,0.437190817 90.8408111,0.45 C92.2513353,0.417791454 93.6156667,0.953592751 94.6273212,1.9370413 C95.6389757,2.92048985 96.2131319,4.26912901 96.2208111,5.68 C96.1937311,6.51334707 95.9999147,7.33281616 95.6508111,8.09 L79.4408111,46.87 C78.5400627,49.4923421 76.0531517,51.2364095 73.2808111,51.19 L72.5708111,51.19 C69.7994393,51.2332525 67.3141979,49.4903559 66.4108111,46.87 L66.4108111,46.87 Z" id="Path"></path>
            <path d="M99.9508111,25.77 L99.9508111,25.63 C99.9508111,11.54 111.060811,0 126.360811,0 C141.660811,0 152.620811,11.4 152.620811,25.49 L152.620811,25.63 C152.620811,39.72 141.510811,51.26 126.220811,51.26 C110.930811,51.26 99.9508111,39.86 99.9508111,25.77 Z M141.220811,25.77 L141.220811,25.63 C141.220811,17.13 134.990811,10.05 126.220811,10.05 C117.450811,10.05 111.350811,16.99 111.350811,25.49 L111.350811,25.63 C111.350811,34.13 117.580811,41.21 126.350811,41.21 C135.120811,41.21 141.240811,34.27 141.240811,25.77 L141.220811,25.77 Z" id="Shape"></path>
            <path d="M159.860811,25.77 L159.860811,25.63 C159.860811,11.54 170.480811,-2.84217094e-14 185.700811,-2.84217094e-14 C193.140811,-2.84217094e-14 198.160811,2 202.270811,5 C203.609371,6.03315664 204.392564,7.62909741 204.390811,9.32 C204.388233,10.7396749 203.81833,12.0994298 202.807915,13.0966983 C201.7975,14.0939669 200.430398,14.6460137 199.010811,14.63 C197.843033,14.617167 196.707813,14.2434177 195.760811,13.56 C192.878553,11.2739721 189.309573,10.0267667 185.630811,10.02 C177.280811,10.02 171.260811,16.96 171.260811,25.46 L171.260811,25.6 C171.260811,34.1 177.140811,41.18 185.630811,41.18 C189.577394,41.2616389 193.413075,39.8713828 196.390811,37.28 C197.769856,36.115314 199.665499,35.7748117 201.363669,36.3867569 C203.06184,36.9987022 204.304545,38.4701259 204.623669,40.2467571 C204.942794,42.0233882 204.289856,43.8353142 202.910811,45 C198.450811,48.89 193.210811,51.23 185.280811,51.23 C170.690811,51.27 159.860811,40 159.860811,25.77 Z" id="Path"></path>
            <path d="M211.410811,43.4 L228.680811,4.4 C229.694732,1.77190703 232.234076,0.0497769728 235.050811,0.08 L235.690811,0.08 C238.490913,0.0499316002 241.009828,1.77718775 241.990811,4.4 L259.270811,43.4 C259.610461,44.0821053 259.80134,44.8285797 259.830811,45.59 C259.852245,46.9723253 259.318081,48.3054375 258.34806,49.2904972 C257.37804,50.2755569 256.053303,50.8301662 254.670811,50.83 C252.120811,50.83 250.420811,49.35 249.430811,47.08 L246.100811,39.27 L224.290811,39.27 L220.820811,47.42 C220.012562,49.4728608 218.027035,50.8190479 215.820811,50.81 C214.478987,50.8102174 213.193386,50.2710967 212.253073,49.3138586 C211.312761,48.3566205 210.796658,47.0616069 210.820811,45.72 C210.851342,44.9136656 211.052428,44.1229582 211.410811,43.4 Z M242.060811,29.67 L235.190811,13.27 L228.330811,29.63 L242.060811,29.67 Z" id="Shape"></path>
            <path d="M267.340811,6.27 C267.33006,4.8213009 267.900801,3.4288165 268.925214,2.40440333 C269.949628,1.37999017 271.342112,0.809248541 272.790811,0.82 L286.670811,0.82 C302.250811,0.82 313.010811,11.51 313.010811,25.46 L313.010811,25.6 C313.010811,39.55 302.250811,50.38 286.670811,50.38 L272.790811,50.38 C271.342112,50.3907515 269.949628,49.8200098 268.925214,48.7955967 C267.900801,47.7711835 267.33006,46.3786991 267.340811,44.93 L267.340811,6.27 Z M286.670811,40.54 C295.590811,40.54 301.610811,34.54 301.610811,25.74 L301.610811,25.6 C301.610811,16.82 295.610811,10.66 286.670811,10.66 L278.240811,10.66 L278.240811,40.57 L286.670811,40.54 Z" id="Shape"></path>
            <path d="M320.010811,25.77 L320.010811,25.63 C320.010811,11.54 331.120811,0 346.410811,0 C361.700811,0 372.680811,11.4 372.680811,25.49 L372.680811,25.63 C372.680811,39.72 361.560811,51.26 346.270811,51.26 C330.980811,51.26 320.010811,39.86 320.010811,25.77 Z M361.280811,25.77 L361.280811,25.63 C361.280811,17.13 355.050811,10.05 346.280811,10.05 C337.510811,10.05 331.410811,16.99 331.410811,25.49 L331.410811,25.63 C331.410811,34.13 337.640811,41.21 346.410811,41.21 C355.180811,41.21 361.280811,34.27 361.280811,25.77 Z" id="Shape"></path>
            <path d="M381.720811,29.17 L381.720811,5.88 C381.720811,2.87004811 384.160859,0.43 387.170811,0.43 C390.180763,0.43 392.620811,2.87004811 392.620811,5.88 L392.620811,28.88 C392.620811,36.95 396.620811,41.12 403.310811,41.12 C410.000811,41.12 414.000811,37.12 414.000811,29.23 L414.000811,5.88 C414.000811,2.87004837 416.44086,0.43000065 419.450811,0.43000065 C422.460763,0.43000065 424.900811,2.87004837 424.900811,5.88 L424.900811,28.81 C424.900811,43.81 416.480811,51.19 403.170811,51.19 C389.860811,51.19 381.720811,43.75 381.720811,29.17 Z" id="Path"></path>
            <path d="M433.950811,25.77 L433.950811,25.63 C433.950811,11.54 444.950811,-2.84217094e-14 459.950811,-2.84217094e-14 C467.450811,-2.84217094e-14 472.410811,1.7 476.870811,4.81 C478.283092,5.82860969 479.126022,7.45876951 479.140811,9.2 C479.140811,12.171292 476.732103,14.58 473.760811,14.58 C472.55443,14.5940816 471.379479,14.1953742 470.430811,13.45 C467.30273,11.1372066 463.489489,9.94006717 459.600811,10.05 C451.660811,10.05 445.360811,17.05 445.360811,25.49 L445.360811,25.63 C445.360811,34.69 451.590811,41.35 460.360811,41.35 C464.0147,41.4568562 467.608989,40.4069177 470.630811,38.35 L470.630811,31.27 L463.270811,31.27 C462.020042,31.2860136 460.814701,30.801715 459.922722,29.9247587 C459.030743,29.0478025 458.526043,27.8508603 458.520811,26.6 C458.526326,23.9805535 460.651359,21.8599942 463.270811,21.86 L475.730811,21.86 C477.17951,21.8492485 478.571995,22.4199902 479.596408,23.4444033 C480.620821,24.4688165 481.191563,25.8613009 481.180811,27.31 L481.180811,39.31 C481.367215,42.1697564 479.876693,44.8776691 477.360811,46.25 C472.139538,49.51498 466.108857,51.2538668 459.950811,51.27 C444.520811,51.27 433.950811,40.43 433.950811,25.77 Z" id="Path"></path>
            <path d="M492.040811,5.88 C492.040811,2.87004811 494.480859,0.43 497.490811,0.43 C500.500763,0.43 502.940811,2.87004811 502.940811,5.88 L502.940811,20.46 L523.050811,20.46 L523.050811,5.88 C523.050811,2.87004811 525.490859,0.43 528.500811,0.43 C531.510763,0.43 533.950811,2.87004811 533.950811,5.88 L533.950811,45.38 C533.950811,48.3899519 531.510763,50.83 528.500811,50.83 C525.490859,50.83 523.050811,48.3899519 523.050811,45.38 L523.050811,30.52 L502.950811,30.52 L502.950811,45.38 C502.950811,48.3899519 500.510763,50.83 497.500811,50.83 C494.490859,50.83 492.050811,48.3899519 492.050811,45.38 L492.040811,5.88 Z" id="Path"></path>
        </g>
    </g>
</svg>